<svg width="16" height="16" viewBox="0 0 16 16" fill="none" xmlns="http://www.w3.org/2000/svg">
<path fill-rule="evenodd" clip-rule="evenodd" d="M7.99996 0.666687C3.94996 0.666687 0.666626 3.95002 0.666626 8.00002C0.666626 12.05 3.94996 15.3334 7.99996 15.3334C12.05 15.3334 15.3333 12.05 15.3333 8.00002C15.3333 3.95002 12.05 0.666687 7.99996 0.666687ZM8.66663 10.6667C8.66663 10.8435 8.59639 11.0131 8.47136 11.1381C8.34634 11.2631 8.17677 11.3334 7.99996 11.3334C7.82315 11.3334 7.65358 11.2631 7.52855 11.1381C7.40353 11.0131 7.33329 10.8435 7.33329 10.6667V8.66669H5.33329C5.15648 8.66669 4.98691 8.59645 4.86189 8.47143C4.73686 8.3464 4.66663 8.17683 4.66663 8.00002C4.66663 7.82321 4.73686 7.65364 4.86189 7.52862C4.98691 7.40359 5.15648 7.33335 5.33329 7.33335H7.33329V5.33335C7.33329 5.15654 7.40353 4.98697 7.52855 4.86195C7.65358 4.73693 7.82315 4.66669 7.99996 4.66669C8.17677 4.66669 8.34634 4.73693 8.47136 4.86195C8.59639 4.98697 8.66663 5.15654 8.66663 5.33335V7.33335H10.6666C10.8434 7.33335 11.013 7.40359 11.138 7.52862C11.2631 7.65364 11.3333 7.82321 11.3333 8.00002C11.3333 8.17683 11.2631 8.3464 11.138 8.47143C11.013 8.59645 10.8434 8.66669 10.6666 8.66669H8.66663V10.6667Z" fill="black"/>
</svg>
