<svg width="10" height="13" viewBox="0 0 10 13" fill="none" xmlns="http://www.w3.org/2000/svg">
<path fill-rule="evenodd" clip-rule="evenodd" d="M0.146894 7.14689C0.193339 7.10033 0.248515 7.06339 0.30926 7.03818C0.370005 7.01297 0.435127 7 0.500894 7C0.566661 7 0.631782 7.01297 0.692528 7.03818C0.753273 7.06339 0.808448 7.10033 0.854894 7.14689L4.50089 10.7939L8.14689 7.14689C8.24078 7.05301 8.36812 7.00026 8.50089 7.00026C8.63367 7.00026 8.76101 7.05301 8.85489 7.14689C8.94878 7.24078 9.00152 7.36812 9.00152 7.50089C9.00152 7.63367 8.94878 7.76101 8.85489 7.85489L4.85489 11.8549C4.80845 11.9015 4.75327 11.9384 4.69253 11.9636C4.63178 11.9888 4.56666 12.0018 4.50089 12.0018C4.43513 12.0018 4.37001 11.9888 4.30926 11.9636C4.24852 11.9384 4.19334 11.9015 4.14689 11.8549L0.146894 7.85489C0.100331 7.80845 0.0633878 7.75327 0.0381813 7.69253C0.0129749 7.63178 0 7.56666 0 7.50089C0 7.43513 0.0129749 7.37001 0.0381813 7.30926C0.0633878 7.24852 0.100331 7.19334 0.146894 7.14689ZM0.146894 4.85489C0.193339 4.90146 0.248515 4.9384 0.30926 4.96361C0.370005 4.98881 0.435127 5.00179 0.500894 5.00179C0.566661 5.00179 0.631782 4.98881 0.692528 4.96361C0.753273 4.9384 0.808448 4.90146 0.854894 4.85489L4.50089 1.20789L8.14689 4.85489C8.24078 4.94878 8.36812 5.00153 8.50089 5.00153C8.63367 5.00153 8.76101 4.94878 8.85489 4.85489C8.94878 4.76101 9.00152 4.63367 9.00152 4.50089C9.00152 4.36812 8.94878 4.24078 8.85489 4.14689L4.85489 0.146894C4.80845 0.100331 4.75327 0.0633878 4.69253 0.0381813C4.63178 0.0129749 4.56666 0 4.50089 0C4.43513 0 4.37001 0.0129749 4.30926 0.0381813C4.24852 0.0633878 4.19334 0.100331 4.14689 0.146894L0.146894 4.14689C0.100331 4.19334 0.0633878 4.24852 0.0381813 4.30926C0.0129749 4.37001 0 4.43513 0 4.50089C0 4.56666 0.0129749 4.63178 0.0381813 4.69253C0.0633878 4.75327 0.100331 4.80845 0.146894 4.85489Z" fill="black"/>
</svg>